<svg width="1440" height="140" viewBox="0 0 1440 140" fill="none" xmlns="http://www.w3.org/2000/svg">
<g clip-path="url(#clip0_16_152)">
<rect x="51.5" y="0.5" width="339" height="139" fill="black" stroke="#181823"/>
<path d="M217.643 69.1573C220.329 68.2706 220.817 66.0292 220.81 64.2027C220.805 61.4142 218.825 59.0018 212.962 59.0018L202.02 59V79.9568H212.934C218.831 79.9568 221.001 76.9471 221.001 73.9324C221.001 70.2819 217.643 69.1573 217.643 69.1573ZM207.212 63.5593H214.579L214.606 63.5647C215.438 63.7111 216.043 64.414 216.043 65.2386C216.043 66.0823 215.394 66.8766 214.537 66.9929L207.217 67.0039L207.212 63.5593ZM214.225 75.0728H207.212V71.5641H214.397L214.414 71.5659C215.308 71.6684 215.985 72.4069 215.985 73.2846C215.985 74.241 215.183 75.0581 214.225 75.0728Z" fill="#8491A0"/>
<path d="M245.504 59.0027H263.995L263.985 63.5767H250.642L250.654 66.9546H262.684V71.5521H250.654V75.2073H263.999L263.997 80H245.504V59.0027Z" fill="#8491A0"/>
<path d="M234.749 59.0303H223.566V79.9938H228.701V71.5121C228.701 71.5121 234.355 71.5057 234.356 71.5057C235.976 71.5304 237.235 72.8492 237.235 74.4754V79.9755L242.262 79.9737L242.252 73.2077C242.252 70.0735 239.206 69.1474 239.206 69.1474C239.206 69.1474 242.32 68.2211 242.32 64.5157C242.32 59.982 238.4 59.0303 234.749 59.0303ZM237.551 65.5343C237.459 66.2234 236.766 66.9711 235.9 66.9711L228.684 66.9739V63.617H235.904C236.766 63.617 237.442 64.2485 237.551 65.0769V65.5343Z" fill="#8491A0"/>
<path d="M198.69 74.928C198.616 74.9299 191.671 75.0634 189.273 74.8309C185.411 74.4549 184.043 71.6115 184.043 69.2906C184.043 66.3969 186.028 64.2674 189.102 63.8675C190.565 63.6771 198.563 63.7668 198.647 63.7676L198.815 63.7696L198.832 59.0024L198.663 59.0034L189.61 59.0199C188.603 59.0812 186.932 59.1819 185.221 59.8774C183.578 60.6259 182.147 61.7755 181.079 63.206C179.72 65.027 179 67.1877 179 69.4543C179 70.1673 179.057 70.8748 179.173 71.5538C179.824 74.7322 181.92 77.3623 184.926 78.7772C185.941 79.221 187.506 79.7536 190.663 79.9293C190.669 79.9293 192.363 79.9649 192.363 79.9649L198.674 79.9713H198.841L198.858 74.926L198.69 74.928Z" fill="#8491A0"/>
<rect x="391.5" y="0.5" width="339" height="139" fill="black" stroke="#181823"/>
<path d="M545.513 69.0984C544.128 73.3121 540.741 75.6866 536.161 75.6866C530.465 75.6866 526 71.1672 526 65.3819C526 59.6741 530.465 55.0003 535.968 55.0003C541.087 55.0003 546.013 59.2146 545.975 66.2246H529.31C529.733 70.3242 532.889 72.7376 536.161 72.7376C538.97 72.7376 540.971 71.3968 542.049 69.0984H545.513ZM542.357 63.3134C541.549 60.095 538.855 57.9501 535.968 57.9501C533.236 57.9501 530.349 59.9426 529.503 63.3134H542.357ZM557.482 75.6869C554.634 75.6869 552.17 74.1548 550.747 72.2395V84H547.475V55.4984H550.631V58.6393C552.017 56.6479 554.556 55 557.482 55C563.177 55 567.373 59.6355 567.373 65.3056C567.373 71.0523 563.177 75.6869 557.482 75.6869ZM557.482 57.9887C553.825 57.9887 550.747 61.2834 550.747 65.3056C550.747 69.3658 553.825 72.699 557.482 72.699C561.176 72.699 564.101 69.3658 564.101 65.3056C564.101 61.2834 561.176 57.9887 557.482 57.9887ZM568.797 55.4984H572.068V75.2274H568.797V55.4984ZM573.529 65.3937C573.529 59.6366 578.224 55.0059 584.167 55.0059C590.112 55.0059 594.807 59.6366 594.807 65.3937C594.807 71.1507 590.069 75.6973 584.167 75.6973C578.267 75.6973 573.529 71.1507 573.529 65.3937ZM585.066 58.149C579.65 57.6777 576.638 61.7815 576.638 66.5627C576.638 71.3428 580.597 75.2196 585.478 75.2196C587.305 75.2229 589.089 74.6668 590.589 73.6268L589.363 70.5214C590.629 69.2086 591.361 67.3937 591.361 65.3897C591.361 61.4272 588.581 58.4782 585.066 58.149Z" fill="#8491A0"/>
<path d="M581.214 67.3765L590.865 75.1926H596L586.598 67.3765" fill="#8491A0"/>
<rect x="731.5" y="0.5" width="339" height="139" fill="black" stroke="#181823"/>
<path d="M913.775 56H887.334C887.255 56 887.18 56.0276 887.119 56.0779C887.059 56.1282 887.019 56.198 887.005 56.2751C886.991 56.3523 887.005 56.4318 887.044 56.4998C887.083 56.5677 887.145 56.6198 887.218 56.6469L911.134 64.4771C911.162 64.486 911.191 64.4851 911.218 64.4744C911.245 64.4637 911.267 64.444 911.281 64.4187L914.849 57.7988C914.95 57.613 915 57.4043 914.995 57.1932C914.99 56.9822 914.931 56.7759 914.823 56.5946C914.715 56.4133 914.561 56.2633 914.378 56.159C914.194 56.0548 913.987 56 913.775 56Z" fill="#8491A0"/>
<path d="M887.006 83.6785C887.006 83.7504 887.03 83.8202 887.074 83.877C887.118 83.9337 887.18 83.9741 887.25 83.9917C887.32 84.0093 887.393 84.0032 887.459 83.9742C887.525 83.9453 887.579 83.8952 887.613 83.8319L892.214 75.3098C892.318 75.1162 892.473 74.9544 892.662 74.8417C892.851 74.729 893.067 74.6694 893.287 74.6694H905.024C905.244 74.6694 905.46 74.6099 905.649 74.497C905.838 74.3842 905.993 74.2223 906.098 74.0285L909.605 67.5258C909.613 67.511 909.617 67.4944 909.616 67.4776C909.616 67.4608 909.611 67.4444 909.603 67.4299C909.594 67.4155 909.582 67.4036 909.567 67.3953C909.553 67.387 909.536 67.3826 909.519 67.3826H888.226C887.902 67.3826 887.592 67.5112 887.363 67.7399C887.134 67.9687 887.006 68.279 887.006 68.6025V83.6785Z" fill="#8491A0"/>
<rect x="1071.5" y="0.5" width="339" height="139" fill="black" stroke="#181823"/>
<path fill-rule="evenodd" clip-rule="evenodd" d="M1250.49 60H1241.15C1235.54 60 1231 63.9029 1231 69.5075V76.0964C1235.09 67.7332 1245.04 61.8566 1250.49 60Z" fill="#8491A0"/>
<path d="M1232 80.9999H1240.28C1245.88 80.9999 1250.43 76.4561 1250.43 70.8512V60.4851C1241.79 65.2827 1235.87 72.751 1232 80.9999Z" fill="#8491A0"/>
<rect x="1411.5" y="0.5" width="339" height="139" fill="black" stroke="#181823"/>
</g>
<defs>
<clipPath id="clip0_16_152">
<rect width="2091" height="140" fill="white"/>
</clipPath>
</defs>
</svg>
