<svg width="171" height="28" viewBox="0 0 171 28" fill="none" xmlns="http://www.w3.org/2000/svg">
<path d="M7.625 11.3594V12.6875H3.125V17H1.71875V6.53125H8.5625V7.85938H3.125V11.3594H7.625ZM14.7812 9.03125C15.5729 9.03125 16.276 9.21875 16.8906 9.59375C17.5052 9.96875 17.9844 10.4688 18.3281 11.0938C18.6823 11.7188 18.8594 12.401 18.8594 13.1406C18.8594 13.8802 18.6823 14.5625 18.3281 15.1875C17.9844 15.8021 17.5052 16.2969 16.8906 16.6719C16.276 17.0469 15.5729 17.2344 14.7812 17.2344C13.9896 17.2344 13.2865 17.0469 12.6719 16.6719C12.0573 16.2969 11.5729 15.8021 11.2188 15.1875C10.875 14.5625 10.7031 13.8802 10.7031 13.1406C10.7031 12.401 10.875 11.7188 11.2188 11.0938C11.5729 10.4688 12.0573 9.96875 12.6719 9.59375C13.2865 9.21875 13.9896 9.03125 14.7812 9.03125ZM14.7812 10.2812C14.2292 10.2812 13.7448 10.4167 13.3281 10.6875C12.9115 10.9479 12.5885 11.2969 12.3594 11.7344C12.1406 12.1615 12.0312 12.6302 12.0312 13.1406C12.0312 13.6406 12.1406 14.1094 12.3594 14.5469C12.5885 14.974 12.9115 15.3229 13.3281 15.5938C13.7448 15.8542 14.2292 15.9844 14.7812 15.9844C15.3438 15.9844 15.8281 15.8542 16.2344 15.5938C16.651 15.3229 16.9688 14.974 17.1875 14.5469C17.4167 14.1094 17.5312 13.6406 17.5312 13.1406C17.5312 12.6302 17.4167 12.1615 17.1875 11.7344C16.9688 11.2969 16.651 10.9479 16.2344 10.6875C15.8281 10.4167 15.3438 10.2812 14.7812 10.2812ZM22.25 5.75V17H20.9688V5.75H22.25ZM26.1875 5.75V17H24.9062V5.75H26.1875ZM32.375 9.03125C33.1667 9.03125 33.8698 9.21875 34.4844 9.59375C35.099 9.96875 35.5781 10.4688 35.9219 11.0938C36.276 11.7188 36.4531 12.401 36.4531 13.1406C36.4531 13.8802 36.276 14.5625 35.9219 15.1875C35.5781 15.8021 35.099 16.2969 34.4844 16.6719C33.8698 17.0469 33.1667 17.2344 32.375 17.2344C31.5833 17.2344 30.8802 17.0469 30.2656 16.6719C29.651 16.2969 29.1667 15.8021 28.8125 15.1875C28.4688 14.5625 28.2969 13.8802 28.2969 13.1406C28.2969 12.401 28.4688 11.7188 28.8125 11.0938C29.1667 10.4688 29.651 9.96875 30.2656 9.59375C30.8802 9.21875 31.5833 9.03125 32.375 9.03125ZM32.375 10.2812C31.8229 10.2812 31.3385 10.4167 30.9219 10.6875C30.5052 10.9479 30.1823 11.2969 29.9531 11.7344C29.7344 12.1615 29.625 12.6302 29.625 13.1406C29.625 13.6406 29.7344 14.1094 29.9531 14.5469C30.1823 14.974 30.5052 15.3229 30.9219 15.5938C31.3385 15.8542 31.8229 15.9844 32.375 15.9844C32.9375 15.9844 33.4219 15.8542 33.8281 15.5938C34.2448 15.3229 34.5625 14.974 34.7812 14.5469C35.0104 14.1094 35.125 13.6406 35.125 13.1406C35.125 12.6302 35.0104 12.1615 34.7812 11.7344C34.5625 11.2969 34.2448 10.9479 33.8281 10.6875C33.4219 10.4167 32.9375 10.2812 32.375 10.2812ZM48.8125 9.1875L46.0781 17H45.2812L43.1406 11.4844L41 17H40.2031L37.4688 9.1875H39L40.7344 14.6719L42.7812 9.1875H43.5L45.5469 14.6719L47.2812 9.1875H48.8125ZM56.3438 9.1875V10.1875C56.5938 9.90625 56.9115 9.64583 57.2969 9.40625C57.6927 9.15625 58.1562 9.03125 58.6875 9.03125C59.25 9.03125 59.776 9.16667 60.2656 9.4375C60.7552 9.69792 61.1302 10.0938 61.3906 10.625C61.7552 10.1875 62.151 9.8125 62.5781 9.5C63.0052 9.1875 63.5052 9.03125 64.0781 9.03125C64.6094 9.03125 65.1042 9.15104 65.5625 9.39062C66.0312 9.61979 66.4062 9.97396 66.6875 10.4531C66.9792 10.9219 67.125 11.5156 67.125 12.2344V17H65.8438L65.8281 12.3594C65.8281 11.6823 65.651 11.1667 65.2969 10.8125C64.9531 10.4583 64.474 10.2812 63.8594 10.2812C63.4115 10.2812 63.0208 10.4219 62.6875 10.7031C62.3542 10.9844 62.0365 11.3125 61.7344 11.6875V17H60.4531L60.4375 12.3594C60.4375 11.6823 60.2604 11.1667 59.9062 10.8125C59.5625 10.4583 59.0833 10.2812 58.4688 10.2812C58.0417 10.2812 57.651 10.4062 57.2969 10.6562C56.9531 10.9062 56.6354 11.2083 56.3438 11.5625V17H55.0625V9.1875H56.3438ZM72.7656 9.03125C73.5677 9.03125 74.2344 9.19792 74.7656 9.53125C75.2969 9.86458 75.6927 10.3177 75.9531 10.8906C76.224 11.4635 76.3594 12.1094 76.3594 12.8281V13.5938H70.3594C70.4219 14.0312 70.5729 14.4323 70.8125 14.7969C71.0521 15.1615 71.3646 15.4531 71.75 15.6719C72.1354 15.8802 72.5781 15.9844 73.0781 15.9844C73.6406 15.9844 74.1667 15.8438 74.6562 15.5625C75.1458 15.2708 75.5573 14.9531 75.8906 14.6094L75.875 16C75.7292 16.1771 75.5104 16.3646 75.2188 16.5625C74.9375 16.75 74.6094 16.9062 74.2344 17.0312C73.8698 17.1667 73.4844 17.2344 73.0781 17.2344C72.2865 17.2344 71.5833 17.0469 70.9688 16.6719C70.3542 16.2969 69.8698 15.8021 69.5156 15.1875C69.1719 14.5625 69 13.8802 69 13.1406C69 12.401 69.1615 11.7188 69.4844 11.0938C69.8073 10.4688 70.25 9.96875 70.8125 9.59375C71.3854 9.21875 72.0365 9.03125 72.7656 9.03125ZM72.7656 10.2812C72.1198 10.2812 71.5885 10.5 71.1719 10.9375C70.7552 11.3646 70.4948 11.8854 70.3906 12.5H75.0938C75.0417 11.9896 74.8958 11.5729 74.6562 11.25C74.4271 10.9271 74.1458 10.6875 73.8125 10.5312C73.4792 10.3646 73.1302 10.2812 72.7656 10.2812ZM86.6875 9.03125C87.4792 9.03125 88.1823 9.21875 88.7969 9.59375C89.4115 9.96875 89.8906 10.4688 90.2344 11.0938C90.5885 11.7188 90.7656 12.401 90.7656 13.1406C90.7656 13.8802 90.5885 14.5625 90.2344 15.1875C89.8906 15.8021 89.4115 16.2969 88.7969 16.6719C88.1823 17.0469 87.4792 17.2344 86.6875 17.2344C85.8958 17.2344 85.1927 17.0469 84.5781 16.6719C83.9635 16.2969 83.4792 15.8021 83.125 15.1875C82.7812 14.5625 82.6094 13.8802 82.6094 13.1406C82.6094 12.401 82.7812 11.7188 83.125 11.0938C83.4792 10.4688 83.9635 9.96875 84.5781 9.59375C85.1927 9.21875 85.8958 9.03125 86.6875 9.03125ZM86.6875 10.2812C86.1354 10.2812 85.651 10.4167 85.2344 10.6875C84.8177 10.9479 84.4948 11.2969 84.2656 11.7344C84.0469 12.1615 83.9375 12.6302 83.9375 13.1406C83.9375 13.6406 84.0469 14.1094 84.2656 14.5469C84.4948 14.974 84.8177 15.3229 85.2344 15.5938C85.651 15.8542 86.1354 15.9844 86.6875 15.9844C87.25 15.9844 87.7344 15.8542 88.1406 15.5938C88.5573 15.3229 88.875 14.974 89.0938 14.5469C89.3229 14.1094 89.4375 13.6406 89.4375 13.1406C89.4375 12.6302 89.3229 12.1615 89.0938 11.7344C88.875 11.2969 88.5573 10.9479 88.1406 10.6875C87.7344 10.4167 87.25 10.2812 86.6875 10.2812ZM94.1562 9.1875V10.4219C94.3229 10.2135 94.5365 10.0052 94.7969 9.79688C95.0573 9.57812 95.349 9.39583 95.6719 9.25C96.0052 9.10417 96.349 9.03125 96.7031 9.03125C97.2344 9.03125 97.7188 9.15104 98.1562 9.39062C98.5938 9.61979 98.9427 9.97396 99.2031 10.4531C99.4635 10.9219 99.5938 11.5156 99.5938 12.2344V17H98.3125L98.2969 12.3594C98.2969 11.6823 98.1458 11.1667 97.8438 10.8125C97.5521 10.4583 97.099 10.2812 96.4844 10.2812C96.0677 10.2812 95.651 10.4375 95.2344 10.75C94.8281 11.0521 94.4688 11.4062 94.1562 11.8125V17H92.875V9.1875H94.1562ZM110.938 6.28125C112.115 6.28125 113.109 6.52083 113.922 7C114.745 7.47917 115.37 8.13021 115.797 8.95312C116.234 9.76562 116.453 10.6875 116.453 11.7188C116.453 12.75 116.234 13.6771 115.797 14.5C115.37 15.3125 114.745 15.9583 113.922 16.4375C113.109 16.9167 112.115 17.1562 110.938 17.1562C110.219 17.1562 109.557 17.1198 108.953 17.0469C108.349 16.974 107.729 16.8802 107.094 16.7656V6.67188C107.729 6.55729 108.349 6.46354 108.953 6.39062C109.557 6.31771 110.219 6.28125 110.938 6.28125ZM110.938 7.60938C110.562 7.60938 110.161 7.625 109.734 7.65625C109.307 7.67708 108.896 7.71354 108.5 7.76562V15.6719C108.896 15.7135 109.307 15.75 109.734 15.7812C110.161 15.8125 110.562 15.8281 110.938 15.8281C111.781 15.8281 112.505 15.651 113.109 15.2969C113.724 14.9323 114.193 14.4427 114.516 13.8281C114.849 13.2031 115.016 12.5 115.016 11.7188C115.016 10.9375 114.849 10.2396 114.516 9.625C114.193 9 113.724 8.51042 113.109 8.15625C112.505 7.79167 111.781 7.60938 110.938 7.60938ZM119.844 9.1875V10.75C120.146 10.2292 120.51 9.8125 120.938 9.5C121.365 9.1875 121.802 9.03125 122.25 9.03125C122.552 9.03125 122.823 9.08333 123.062 9.1875V10.6719C122.729 10.474 122.396 10.375 122.062 10.375C121.531 10.375 121.099 10.5625 120.766 10.9375C120.443 11.3125 120.135 11.7604 119.844 12.2812V17H118.562V9.1875H119.844ZM125.953 5.4375C126.255 5.4375 126.505 5.54688 126.703 5.76562C126.911 5.97396 127.016 6.21875 127.016 6.5C127.016 6.77083 126.911 7.01562 126.703 7.23438C126.505 7.45312 126.255 7.5625 125.953 7.5625C125.651 7.5625 125.396 7.45312 125.188 7.23438C124.99 7.01562 124.891 6.77083 124.891 6.5C124.891 6.21875 124.99 5.97396 125.188 5.76562C125.396 5.54688 125.651 5.4375 125.953 5.4375ZM126.75 9.1875V17H125.469V10.3906H124.234V9.1875H126.75ZM133.359 9.03125C134.078 9.03125 134.719 9.20312 135.281 9.54688C135.854 9.88021 136.302 10.3594 136.625 10.9844C136.958 11.6094 137.125 12.3542 137.125 13.2188C137.125 14.0104 136.958 14.7083 136.625 15.3125C136.302 15.9167 135.865 16.3906 135.312 16.7344C134.771 17.0677 134.161 17.2344 133.484 17.2344C132.891 17.2344 132.359 17.0781 131.891 16.7656C131.432 16.4531 131.068 16.0885 130.797 15.6719V17H129.516V5.75H130.797V10.2344C131.13 9.85938 131.526 9.56771 131.984 9.35938C132.453 9.14062 132.911 9.03125 133.359 9.03125ZM133.125 10.2969C132.646 10.2969 132.224 10.4115 131.859 10.6406C131.495 10.8594 131.146 11.1719 130.812 11.5781L130.797 13.0781C130.797 13.6302 130.901 14.125 131.109 14.5625C131.328 15 131.625 15.3438 132 15.5938C132.385 15.8438 132.812 15.9688 133.281 15.9688C133.792 15.9688 134.234 15.8438 134.609 15.5938C134.984 15.3438 135.276 15.0104 135.484 14.5938C135.693 14.1771 135.797 13.7188 135.797 13.2188C135.797 12.7083 135.688 12.2344 135.469 11.7969C135.26 11.349 134.958 10.9896 134.562 10.7188C134.167 10.4375 133.688 10.2969 133.125 10.2969ZM143.078 9.03125C143.797 9.03125 144.438 9.20312 145 9.54688C145.573 9.88021 146.021 10.3594 146.344 10.9844C146.677 11.6094 146.844 12.3542 146.844 13.2188C146.844 14.0104 146.677 14.7083 146.344 15.3125C146.021 15.9167 145.583 16.3906 145.031 16.7344C144.49 17.0677 143.88 17.2344 143.203 17.2344C142.609 17.2344 142.078 17.0781 141.609 16.7656C141.151 16.4531 140.786 16.0885 140.516 15.6719V17H139.234V5.75H140.516V10.2344C140.849 9.85938 141.245 9.56771 141.703 9.35938C142.172 9.14062 142.63 9.03125 143.078 9.03125ZM142.844 10.2969C142.365 10.2969 141.943 10.4115 141.578 10.6406C141.214 10.8594 140.865 11.1719 140.531 11.5781L140.516 13.0781C140.516 13.6302 140.62 14.125 140.828 14.5625C141.047 15 141.344 15.3438 141.719 15.5938C142.104 15.8438 142.531 15.9688 143 15.9688C143.51 15.9688 143.953 15.8438 144.328 15.5938C144.703 15.3438 144.995 15.0104 145.203 14.5938C145.411 14.1771 145.516 13.7188 145.516 13.2188C145.516 12.7083 145.406 12.2344 145.188 11.7969C144.979 11.349 144.677 10.9896 144.281 10.7188C143.885 10.4375 143.406 10.2969 142.844 10.2969ZM152.797 9.03125C153.516 9.03125 154.156 9.20312 154.719 9.54688C155.292 9.88021 155.74 10.3594 156.062 10.9844C156.396 11.6094 156.562 12.3542 156.562 13.2188C156.562 14.0104 156.396 14.7083 156.062 15.3125C155.74 15.9167 155.302 16.3906 154.75 16.7344C154.208 17.0677 153.599 17.2344 152.922 17.2344C152.328 17.2344 151.797 17.0781 151.328 16.7656C150.87 16.4531 150.505 16.0885 150.234 15.6719V17H148.953V5.75H150.234V10.2344C150.568 9.85938 150.964 9.56771 151.422 9.35938C151.891 9.14062 152.349 9.03125 152.797 9.03125ZM152.562 10.2969C152.083 10.2969 151.661 10.4115 151.297 10.6406C150.932 10.8594 150.583 11.1719 150.25 11.5781L150.234 13.0781C150.234 13.6302 150.339 14.125 150.547 14.5625C150.766 15 151.062 15.3438 151.438 15.5938C151.823 15.8438 152.25 15.9688 152.719 15.9688C153.229 15.9688 153.672 15.8438 154.047 15.5938C154.422 15.3438 154.714 15.0104 154.922 14.5938C155.13 14.1771 155.234 13.7188 155.234 13.2188C155.234 12.7083 155.125 12.2344 154.906 11.7969C154.698 11.349 154.396 10.9896 154 10.7188C153.604 10.4375 153.125 10.2969 152.562 10.2969ZM159.953 5.75V17H158.672V5.75H159.953ZM165.828 9.03125C166.63 9.03125 167.297 9.19792 167.828 9.53125C168.359 9.86458 168.755 10.3177 169.016 10.8906C169.286 11.4635 169.422 12.1094 169.422 12.8281V13.5938H163.422C163.484 14.0312 163.635 14.4323 163.875 14.7969C164.115 15.1615 164.427 15.4531 164.812 15.6719C165.198 15.8802 165.641 15.9844 166.141 15.9844C166.703 15.9844 167.229 15.8438 167.719 15.5625C168.208 15.2708 168.62 14.9531 168.953 14.6094L168.938 16C168.792 16.1771 168.573 16.3646 168.281 16.5625C168 16.75 167.672 16.9062 167.297 17.0312C166.932 17.1667 166.547 17.2344 166.141 17.2344C165.349 17.2344 164.646 17.0469 164.031 16.6719C163.417 16.2969 162.932 15.8021 162.578 15.1875C162.234 14.5625 162.062 13.8802 162.062 13.1406C162.062 12.401 162.224 11.7188 162.547 11.0938C162.87 10.4688 163.312 9.96875 163.875 9.59375C164.448 9.21875 165.099 9.03125 165.828 9.03125ZM165.828 10.2812C165.182 10.2812 164.651 10.5 164.234 10.9375C163.818 11.3646 163.557 11.8854 163.453 12.5H168.156C168.104 11.9896 167.958 11.5729 167.719 11.25C167.49 10.9271 167.208 10.6875 166.875 10.5312C166.542 10.3646 166.193 10.2812 165.828 10.2812Z" fill="white"/>
<line y1="27.5" x2="171" y2="27.5" stroke="#8491A0"/>
</svg>
