<svg width="247" height="75" viewBox="0 0 247 75" fill="none" xmlns="http://www.w3.org/2000/svg">
<rect x="0.5" y="0.5" width="246" height="74" stroke="#5221E6"/>
<path d="M44.3574 32.2227L38.873 44.0879H37.6602L32.1758 32.2227H35.041L38.2578 40.0098L41.4922 32.2227H44.3574ZM52.6191 41.8027V44H46.2031V41.8027H48.1895V34.4199H46.2031V32.2227H52.6191V34.4199H50.6328V41.8027H52.6191ZM63.6934 37.0039V38.9902H58.4902V41.8379H64.3789V44H56.0469V32.2227H64.3789V34.332H58.4902V37.0039H63.6934ZM82.4668 32.2227L78.4941 44H76.8066L74.1875 36.4238L71.5684 44H69.8809L65.9609 32.2227H68.7383L70.918 39.6582L73.3965 32.2227H75.0312L77.4746 39.6582L79.6895 32.2227H82.4668ZM94.7891 32.1348L100.273 44H97.4082L96.5117 41.8027H91.8535L90.957 44H88.0918L93.5762 32.1348H94.7891ZM94.1914 36.125L92.7148 39.7285H95.668L94.1914 36.125ZM104.65 32.2227V41.8027H110.539V44H102.207V32.2227H104.65ZM115.848 32.2227V41.8027H121.736V44H113.404V32.2227H115.848ZM134.656 32.2227C135.207 32.2227 135.746 32.3164 136.273 32.5039C136.801 32.6914 137.275 32.9668 137.697 33.3301C138.131 33.6934 138.471 34.1328 138.717 34.6484C138.975 35.1523 139.104 35.7324 139.104 36.3887C139.104 37.1855 138.898 37.8945 138.488 38.5156C138.09 39.125 137.557 39.6055 136.889 39.957C136.221 40.3086 135.494 40.4844 134.709 40.4844C134.182 40.4844 133.707 40.4316 133.285 40.3262C132.863 40.2207 132.512 40.0977 132.23 39.957V44H129.787V32.2227H134.656ZM132.23 34.5078V37.9883C132.488 38.0938 132.799 38.1875 133.162 38.2695C133.537 38.3398 133.918 38.375 134.305 38.375C135.008 38.375 135.564 38.1816 135.975 37.7949C136.396 37.3965 136.607 36.9277 136.607 36.3887C136.607 35.7676 136.373 35.2988 135.904 34.9824C135.436 34.666 134.885 34.5078 134.252 34.5078H132.23ZM146.346 32.2227C146.896 32.2227 147.436 32.2988 147.963 32.4512C148.49 32.6035 148.965 32.8379 149.387 33.1543C149.82 33.4707 150.16 33.8691 150.406 34.3496C150.664 34.8184 150.793 35.3809 150.793 36.0371C150.793 36.7285 150.617 37.3262 150.266 37.8301C149.926 38.3223 149.475 38.709 148.912 38.9902C148.35 39.2598 147.74 39.418 147.084 39.4648L151.32 44H148.104L144.008 39.1836V44H141.564V32.2227H146.346ZM144.008 34.5078V37.4785C144.289 37.5723 144.6 37.6484 144.939 37.707C145.291 37.7539 145.643 37.7773 145.994 37.7773C146.697 37.7773 147.254 37.6367 147.664 37.3555C148.086 37.0625 148.297 36.6523 148.297 36.125C148.297 35.5508 148.074 35.1406 147.629 34.8945C147.195 34.6367 146.662 34.5078 146.029 34.5078H144.008ZM157.719 31.959C158.562 31.959 159.354 32.1113 160.092 32.416C160.83 32.709 161.48 33.1309 162.043 33.6816C162.617 34.2207 163.062 34.8652 163.379 35.6152C163.707 36.3652 163.871 37.1973 163.871 38.1113C163.871 39.0254 163.707 39.8574 163.379 40.6074C163.062 41.3574 162.617 42.0078 162.043 42.5586C161.48 43.0977 160.83 43.5195 160.092 43.8242C159.354 44.1172 158.562 44.2637 157.719 44.2637C156.875 44.2637 156.078 44.1172 155.328 43.8242C154.59 43.5195 153.934 43.0977 153.359 42.5586C152.797 42.0078 152.352 41.3574 152.023 40.6074C151.707 39.8574 151.549 39.0254 151.549 38.1113C151.549 37.1973 151.707 36.3652 152.023 35.6152C152.352 34.8652 152.797 34.2207 153.359 33.6816C153.934 33.1309 154.59 32.709 155.328 32.416C156.078 32.1113 156.875 31.959 157.719 31.959ZM157.719 34.2617C157.016 34.2617 156.383 34.4316 155.82 34.7715C155.27 35.1113 154.836 35.5684 154.52 36.1426C154.203 36.7168 154.045 37.373 154.045 38.1113C154.045 38.8379 154.203 39.4941 154.52 40.0801C154.836 40.6543 155.27 41.1113 155.82 41.4512C156.383 41.7793 157.016 41.9434 157.719 41.9434C158.422 41.9434 159.049 41.7793 159.6 41.4512C160.15 41.1113 160.584 40.6543 160.9 40.0801C161.217 39.4941 161.375 38.8379 161.375 38.1113C161.375 37.373 161.217 36.7168 160.9 36.1426C160.584 35.5684 160.15 35.1113 159.6 34.7715C159.049 34.4316 158.422 34.2617 157.719 34.2617ZM169.145 32.1875V43.2793C169.145 44.2754 168.957 45.1133 168.582 45.793C168.219 46.4844 167.715 47.0469 167.07 47.4805C166.426 47.9141 165.688 48.248 164.855 48.4824L163.924 46.2852C165.775 45.7461 166.701 44.7793 166.701 43.3848V32.1875H169.145ZM180.219 37.0039V38.9902H175.016V41.8379H180.904V44H172.572V32.2227H180.904V34.332H175.016V37.0039H180.219ZM189.324 31.959C190.062 31.959 190.701 32.0645 191.24 32.2754C191.779 32.4746 192.248 32.75 192.646 33.1016V35.5625C192.365 35.3516 192.072 35.1465 191.768 34.9473C191.463 34.748 191.117 34.584 190.73 34.4551C190.355 34.3262 189.91 34.2617 189.395 34.2617C188.691 34.2617 188.053 34.4316 187.479 34.7715C186.904 35.1113 186.447 35.5684 186.107 36.1426C185.768 36.7168 185.598 37.373 185.598 38.1113C185.598 38.8379 185.768 39.4941 186.107 40.0801C186.447 40.6543 186.904 41.1113 187.479 41.4512C188.053 41.7793 188.691 41.9434 189.395 41.9434C190.18 41.9434 190.836 41.8262 191.363 41.5918C191.902 41.3457 192.389 41.0469 192.822 40.6953V43.0684C192.424 43.4316 191.926 43.7246 191.328 43.9473C190.73 44.1582 190.062 44.2637 189.324 44.2637C188.48 44.2637 187.684 44.1172 186.934 43.8242C186.184 43.5195 185.521 43.0977 184.947 42.5586C184.373 42.0078 183.922 41.3574 183.594 40.6074C183.266 39.8574 183.102 39.0254 183.102 38.1113C183.102 37.1973 183.266 36.3652 183.594 35.6152C183.922 34.8652 184.373 34.2207 184.947 33.6816C185.521 33.1309 186.184 32.709 186.934 32.416C187.684 32.1113 188.48 31.959 189.324 31.959ZM204.055 32.2227V34.4199H200.293V43.9473H197.867V34.4199H194.105V32.2227H204.055ZM209.504 31.9941C210.184 31.9941 210.805 32.0879 211.367 32.2754C211.93 32.4629 212.404 32.6797 212.791 32.9258V35.334C212.369 35.0762 211.918 34.8359 211.438 34.6133C210.957 34.3906 210.412 34.2793 209.803 34.2793C209.498 34.2793 209.193 34.3262 208.889 34.4199C208.596 34.5137 208.35 34.6543 208.15 34.8418C207.963 35.0293 207.869 35.2695 207.869 35.5625C207.869 35.9492 208.039 36.2422 208.379 36.4414C208.719 36.6406 209.135 36.8398 209.627 37.0391L211.068 37.6367C211.889 37.9883 212.492 38.416 212.879 38.9199C213.266 39.4238 213.459 39.998 213.459 40.6426C213.459 41.3457 213.254 41.9668 212.844 42.5059C212.445 43.0332 211.906 43.4492 211.227 43.7539C210.559 44.0586 209.814 44.2109 208.994 44.2109C208.303 44.2109 207.641 44.0938 207.008 43.8594C206.375 43.625 205.824 43.3379 205.355 42.998V40.5898C205.871 40.9648 206.439 41.2812 207.061 41.5391C207.682 41.7969 208.344 41.9258 209.047 41.9258C209.539 41.9258 209.961 41.832 210.312 41.6445C210.664 41.4453 210.84 41.1523 210.84 40.7656C210.84 40.4609 210.693 40.2148 210.4 40.0273C210.119 39.8281 209.809 39.6641 209.469 39.5352L207.658 38.832C206.744 38.4805 206.123 38.0234 205.795 37.4609C205.479 36.8867 205.32 36.2539 205.32 35.5625C205.32 34.8477 205.514 34.2266 205.9 33.6992C206.299 33.1602 206.814 32.7441 207.447 32.4512C208.08 32.1465 208.766 31.9941 209.504 31.9941Z" fill="white"/>
</svg>
