<svg width="116" height="28" viewBox="0 0 116 28" fill="none" xmlns="http://www.w3.org/2000/svg">
<path d="M11.4531 6.53125V17H10.0469V9.42188L6.8125 12.875H6.4375L3.125 9.42188V17H1.71875V6.53125H2.15625L6.625 11.3281L11.0156 6.53125H11.4531ZM18.0312 9.03125C18.8229 9.03125 19.526 9.21875 20.1406 9.59375C20.7552 9.96875 21.2344 10.4688 21.5781 11.0938C21.9323 11.7188 22.1094 12.401 22.1094 13.1406C22.1094 13.8802 21.9323 14.5625 21.5781 15.1875C21.2344 15.8021 20.7552 16.2969 20.1406 16.6719C19.526 17.0469 18.8229 17.2344 18.0312 17.2344C17.2396 17.2344 16.5365 17.0469 15.9219 16.6719C15.3073 16.2969 14.8229 15.8021 14.4688 15.1875C14.125 14.5625 13.9531 13.8802 13.9531 13.1406C13.9531 12.401 14.125 11.7188 14.4688 11.0938C14.8229 10.4688 15.3073 9.96875 15.9219 9.59375C16.5365 9.21875 17.2396 9.03125 18.0312 9.03125ZM18.0312 10.2812C17.4792 10.2812 16.9948 10.4167 16.5781 10.6875C16.1615 10.9479 15.8385 11.2969 15.6094 11.7344C15.3906 12.1615 15.2812 12.6302 15.2812 13.1406C15.2812 13.6406 15.3906 14.1094 15.6094 14.5469C15.8385 14.974 16.1615 15.3229 16.5781 15.5938C16.9948 15.8542 17.4792 15.9844 18.0312 15.9844C18.5938 15.9844 19.0781 15.8542 19.4844 15.5938C19.901 15.3229 20.2188 14.974 20.4375 14.5469C20.6667 14.1094 20.7812 13.6406 20.7812 13.1406C20.7812 12.6302 20.6667 12.1615 20.4375 11.7344C20.2188 11.2969 19.901 10.9479 19.4844 10.6875C19.0781 10.4167 18.5938 10.2812 18.0312 10.2812ZM25.5 9.1875V10.75C25.8021 10.2292 26.1667 9.8125 26.5938 9.5C27.0208 9.1875 27.4583 9.03125 27.9062 9.03125C28.2083 9.03125 28.4792 9.08333 28.7188 9.1875V10.6719C28.3854 10.474 28.0521 10.375 27.7188 10.375C27.1875 10.375 26.7552 10.5625 26.4219 10.9375C26.099 11.3125 25.7917 11.7604 25.5 12.2812V17H24.2188V9.1875H25.5ZM33.5781 9.03125C34.3802 9.03125 35.0469 9.19792 35.5781 9.53125C36.1094 9.86458 36.5052 10.3177 36.7656 10.8906C37.0365 11.4635 37.1719 12.1094 37.1719 12.8281V13.5938H31.1719C31.2344 14.0312 31.3854 14.4323 31.625 14.7969C31.8646 15.1615 32.1771 15.4531 32.5625 15.6719C32.9479 15.8802 33.3906 15.9844 33.8906 15.9844C34.4531 15.9844 34.9792 15.8438 35.4688 15.5625C35.9583 15.2708 36.3698 14.9531 36.7031 14.6094L36.6875 16C36.5417 16.1771 36.3229 16.3646 36.0312 16.5625C35.75 16.75 35.4219 16.9062 35.0469 17.0312C34.6823 17.1667 34.2969 17.2344 33.8906 17.2344C33.099 17.2344 32.3958 17.0469 31.7812 16.6719C31.1667 16.2969 30.6823 15.8021 30.3281 15.1875C29.9844 14.5625 29.8125 13.8802 29.8125 13.1406C29.8125 12.401 29.974 11.7188 30.2969 11.0938C30.6198 10.4688 31.0625 9.96875 31.625 9.59375C32.1979 9.21875 32.849 9.03125 33.5781 9.03125ZM33.5781 10.2812C32.9323 10.2812 32.401 10.5 31.9844 10.9375C31.5677 11.3646 31.3073 11.8854 31.2031 12.5H35.9062C35.8542 11.9896 35.7083 11.5729 35.4688 11.25C35.2396 10.9271 34.9583 10.6875 34.625 10.5312C34.2917 10.3646 33.9427 10.2812 33.5781 10.2812ZM47.1875 9.03125C47.6354 9.03125 48.0885 9.14062 48.5469 9.35938C49.0156 9.56771 49.4167 9.85938 49.75 10.2344V9.1875H51.0312V17H49.75V15.6719C49.4792 16.0885 49.1094 16.4531 48.6406 16.7656C48.1823 17.0781 47.6562 17.2344 47.0625 17.2344C46.3958 17.2344 45.7865 17.0677 45.2344 16.7344C44.6823 16.3906 44.2396 15.9167 43.9062 15.3125C43.5833 14.7083 43.4219 14.0104 43.4219 13.2188C43.4219 12.3542 43.5833 11.6094 43.9062 10.9844C44.2396 10.3594 44.6927 9.88021 45.2656 9.54688C45.8385 9.20312 46.4792 9.03125 47.1875 9.03125ZM47.4219 10.2812C46.8594 10.2812 46.3802 10.4219 45.9844 10.7031C45.5885 10.9844 45.2812 11.349 45.0625 11.7969C44.8542 12.2344 44.75 12.7083 44.75 13.2188C44.75 13.7188 44.8542 14.1823 45.0625 14.6094C45.2708 15.026 45.5625 15.3594 45.9375 15.6094C46.3229 15.8594 46.7656 15.9844 47.2656 15.9844C47.7448 15.9844 48.1719 15.8594 48.5469 15.6094C48.9219 15.3594 49.2188 15.0156 49.4375 14.5781C49.6562 14.1302 49.7604 13.6302 49.75 13.0781L49.7344 11.5781C49.4115 11.1719 49.0625 10.8542 48.6875 10.625C48.3229 10.3958 47.901 10.2812 47.4219 10.2812ZM57.5312 9.03125C58.25 9.03125 58.8906 9.20312 59.4531 9.54688C60.026 9.88021 60.474 10.3594 60.7969 10.9844C61.1302 11.6094 61.2969 12.3542 61.2969 13.2188C61.2969 14.0104 61.1302 14.7083 60.7969 15.3125C60.474 15.9167 60.0365 16.3906 59.4844 16.7344C58.9427 17.0677 58.3333 17.2344 57.6562 17.2344C57.0625 17.2344 56.5312 17.0781 56.0625 16.7656C55.6042 16.4531 55.2396 16.0885 54.9688 15.6719V17H53.6875V5.75H54.9688V10.2344C55.3021 9.85938 55.6979 9.56771 56.1562 9.35938C56.625 9.14062 57.0833 9.03125 57.5312 9.03125ZM57.2969 10.2969C56.8177 10.2969 56.3958 10.4115 56.0312 10.6406C55.6667 10.8594 55.3177 11.1719 54.9844 11.5781L54.9688 13.0781C54.9688 13.6302 55.0729 14.125 55.2812 14.5625C55.5 15 55.7969 15.3438 56.1719 15.5938C56.5573 15.8438 56.9844 15.9688 57.4531 15.9688C57.9635 15.9688 58.4062 15.8438 58.7812 15.5938C59.1562 15.3438 59.4479 15.0104 59.6562 14.5938C59.8646 14.1771 59.9688 13.7188 59.9688 13.2188C59.9688 12.7083 59.8594 12.2344 59.6406 11.7969C59.4323 11.349 59.1302 10.9896 58.7344 10.7188C58.3385 10.4375 57.8594 10.2969 57.2969 10.2969ZM66.9375 9.03125C67.7292 9.03125 68.4323 9.21875 69.0469 9.59375C69.6615 9.96875 70.1406 10.4688 70.4844 11.0938C70.8385 11.7188 71.0156 12.401 71.0156 13.1406C71.0156 13.8802 70.8385 14.5625 70.4844 15.1875C70.1406 15.8021 69.6615 16.2969 69.0469 16.6719C68.4323 17.0469 67.7292 17.2344 66.9375 17.2344C66.1458 17.2344 65.4427 17.0469 64.8281 16.6719C64.2135 16.2969 63.7292 15.8021 63.375 15.1875C63.0312 14.5625 62.8594 13.8802 62.8594 13.1406C62.8594 12.401 63.0312 11.7188 63.375 11.0938C63.7292 10.4688 64.2135 9.96875 64.8281 9.59375C65.4427 9.21875 66.1458 9.03125 66.9375 9.03125ZM66.9375 10.2812C66.3854 10.2812 65.901 10.4167 65.4844 10.6875C65.0677 10.9479 64.7448 11.2969 64.5156 11.7344C64.2969 12.1615 64.1875 12.6302 64.1875 13.1406C64.1875 13.6406 64.2969 14.1094 64.5156 14.5469C64.7448 14.974 65.0677 15.3229 65.4844 15.5938C65.901 15.8542 66.3854 15.9844 66.9375 15.9844C67.5 15.9844 67.9844 15.8542 68.3906 15.5938C68.8073 15.3229 69.125 14.974 69.3438 14.5469C69.5729 14.1094 69.6875 13.6406 69.6875 13.1406C69.6875 12.6302 69.5729 12.1615 69.3438 11.7344C69.125 11.2969 68.8073 10.9479 68.3906 10.6875C67.9844 10.4167 67.5 10.2812 66.9375 10.2812ZM79.5156 9.1875V13.8125C79.5156 14.5 79.3698 15.0938 79.0781 15.5938C78.7865 16.0938 78.3906 16.4792 77.8906 16.75C77.3906 17.0208 76.8281 17.1562 76.2031 17.1562C75.5781 17.1562 75.0156 17.0208 74.5156 16.75C74.0156 16.4792 73.6198 16.0938 73.3281 15.5938C73.0365 15.0938 72.8906 14.5 72.8906 13.8125V9.1875H74.2188V13.8125C74.2188 14.4896 74.4167 15.0104 74.8125 15.375C75.2188 15.7292 75.6823 15.9062 76.2031 15.9062C76.724 15.9062 77.1823 15.7292 77.5781 15.375C77.9844 15.0104 78.1875 14.4896 78.1875 13.8125V9.1875H79.5156ZM84.0938 6.9375V9.1875H86.375V10.3906H84.0938V14.9688C84.0938 15.2917 84.1771 15.5469 84.3438 15.7344C84.5104 15.9219 84.7656 16.0156 85.1094 16.0156C85.4219 16.0156 85.6823 15.9792 85.8906 15.9062C86.099 15.8229 86.2812 15.7344 86.4375 15.6406V16.6875C86.2292 16.8542 86.0052 16.9844 85.7656 17.0781C85.5365 17.1823 85.224 17.2344 84.8281 17.2344C84.1615 17.2344 83.6562 17.0365 83.3125 16.6406C82.9792 16.2344 82.8125 15.6979 82.8125 15.0312V10.3906H81.3125V10.0156C81.8229 9.78646 82.25 9.41146 82.5938 8.89062C82.9375 8.35938 83.2396 7.70833 83.5 6.9375H84.0938ZM94.6719 9.1875V10.1875C94.9219 9.90625 95.2396 9.64583 95.625 9.40625C96.0208 9.15625 96.4844 9.03125 97.0156 9.03125C97.5781 9.03125 98.1042 9.16667 98.5938 9.4375C99.0833 9.69792 99.4583 10.0938 99.7188 10.625C100.083 10.1875 100.479 9.8125 100.906 9.5C101.333 9.1875 101.833 9.03125 102.406 9.03125C102.938 9.03125 103.432 9.15104 103.891 9.39062C104.359 9.61979 104.734 9.97396 105.016 10.4531C105.307 10.9219 105.453 11.5156 105.453 12.2344V17H104.172L104.156 12.3594C104.156 11.6823 103.979 11.1667 103.625 10.8125C103.281 10.4583 102.802 10.2812 102.188 10.2812C101.74 10.2812 101.349 10.4219 101.016 10.7031C100.682 10.9844 100.365 11.3125 100.062 11.6875V17H98.7812L98.7656 12.3594C98.7656 11.6823 98.5885 11.1667 98.2344 10.8125C97.8906 10.4583 97.4115 10.2812 96.7969 10.2812C96.3698 10.2812 95.9792 10.4062 95.625 10.6562C95.2812 10.9062 94.9635 11.2083 94.6719 11.5625V17H93.3906V9.1875H94.6719ZM111.094 9.03125C111.896 9.03125 112.562 9.19792 113.094 9.53125C113.625 9.86458 114.021 10.3177 114.281 10.8906C114.552 11.4635 114.688 12.1094 114.688 12.8281V13.5938H108.688C108.75 14.0312 108.901 14.4323 109.141 14.7969C109.38 15.1615 109.693 15.4531 110.078 15.6719C110.464 15.8802 110.906 15.9844 111.406 15.9844C111.969 15.9844 112.495 15.8438 112.984 15.5625C113.474 15.2708 113.885 14.9531 114.219 14.6094L114.203 16C114.057 16.1771 113.839 16.3646 113.547 16.5625C113.266 16.75 112.938 16.9062 112.562 17.0312C112.198 17.1667 111.812 17.2344 111.406 17.2344C110.615 17.2344 109.911 17.0469 109.297 16.6719C108.682 16.2969 108.198 15.8021 107.844 15.1875C107.5 14.5625 107.328 13.8802 107.328 13.1406C107.328 12.401 107.49 11.7188 107.812 11.0938C108.135 10.4688 108.578 9.96875 109.141 9.59375C109.714 9.21875 110.365 9.03125 111.094 9.03125ZM111.094 10.2812C110.448 10.2812 109.917 10.5 109.5 10.9375C109.083 11.3646 108.823 11.8854 108.719 12.5H113.422C113.37 11.9896 113.224 11.5729 112.984 11.25C112.755 10.9271 112.474 10.6875 112.141 10.5312C111.807 10.3646 111.458 10.2812 111.094 10.2812Z" fill="#181823"/>
<line y1="27.5" x2="116" y2="27.5" stroke="#8491A0"/>
</svg>
